<svg width="451" height="117" viewBox="0 0 451 117" fill="none" xmlns="http://www.w3.org/2000/svg">
<path d="M33.6875 57V20.6875H16.4375V6.625H68.125V20.6875H50.875V57H33.6875ZM259.156 36.9062V57H241.969V0.53125L276.094 31.3438L310.344 0.53125L310.219 57H293.031V36.9062L276.094 52.3125L259.156 36.9062Z" fill="#F05345"/>
<path d="M106.93 46.2422L113.727 56.9531H99.0547L87.1953 38.2266H96.5703C97.8203 38.2109 98.8984 37.7969 99.8047 36.9844C100.711 36.1719 101.164 35.1797 101.164 34.0078C101.164 32.8359 100.711 31.8359 99.8047 31.0078C98.8984 30.1797 97.8047 29.7656 96.5234 29.7656H87.0312V57H74.1406V19.2188C87.5312 19.2344 95.4141 19.2422 97.7891 19.2422C102.289 19.2422 106.125 20.6875 109.297 23.5781C112.484 26.4531 114.078 29.9219 114.078 33.9844C114.078 38.0781 112.484 41.5625 109.297 44.4375C108.547 45.125 107.758 45.7266 106.93 46.2422ZM153.992 19.2188L147.078 29.7422H130.578V32.8828H151.344V43.3828H130.578V46.4766H151.344V57H117.688V19.2188H153.992ZM181.93 44.25L179 39.2344L176.07 44.25H181.93ZM187.953 54.5391L170.07 54.5156L168.617 57H154.18L179 14.6484L203.82 57H189.383L187.953 54.5391ZM210.125 57V29.7656H197.188V19.2188H235.953V29.7656H223.016V57H210.125ZM352.664 19.2188L345.75 29.7422H329.25V32.8828H350.016V43.3828H329.25V46.4766H350.016V57H316.359V19.2188H352.664ZM368.203 57V29.7656H355.266V19.2188H394.031V29.7656H381.094V57H368.203ZM415.148 44.25L412.219 39.2344L409.289 44.25H415.148ZM421.172 54.5391L403.289 54.5156L401.836 57H387.398L412.219 14.6484L437.039 57H422.602L421.172 54.5391Z" fill="#DEDEDE"/>
<path d="M2.024 106L0.22 92.294H2.376L3.3 100.896L5.06 93.372H6.38L8.14 100.874L8.866 92.294H10.89L9.108 106H7.546L5.61 97.552L3.63 106H2.024ZM11.836 92.294H14.322H14.542V92.492C14.454 92.58 14.3953 92.6753 14.366 92.778C14.3513 92.8807 14.344 93.0567 14.344 93.306V97.86H18.568V92.294H21.076H21.274V92.492C21.186 92.58 21.1347 92.6753 21.12 92.778C21.1053 92.8807 21.098 93.0567 21.098 93.306V106H18.568V99.84H14.344V106H11.836V92.294ZM23.122 106V92.294H32.054V94.318H25.542V97.838H30.888V99.884H25.542V103.976H31.988V106H23.122ZM33.99 106V92.294H38.324C39.4533 92.294 40.37 92.4627 41.074 92.8C41.7927 93.1227 42.3207 93.592 42.658 94.208C42.9953 94.8093 43.164 95.5133 43.164 96.32C43.164 96.8187 43.054 97.3173 42.834 97.816C42.6287 98.3147 42.3353 98.762 41.954 99.158C41.5727 99.554 41.118 99.8547 40.59 100.06L43.538 106H40.92L38.148 100.302H36.498V106H33.99ZM36.498 98.234H38.5C39.204 98.234 39.732 98.0727 40.084 97.75C40.436 97.4127 40.612 96.958 40.612 96.386C40.612 96.0193 40.5313 95.6967 40.37 95.418C40.2233 95.1247 39.9887 94.89 39.666 94.714C39.358 94.538 38.9693 94.45 38.5 94.45H36.498V98.234ZM45.122 106V92.294H54.054V94.318H47.542V97.838H52.888V99.884H47.542V103.976H53.988V106H45.122ZM66.924 106V92.294H70.466C71.2727 92.294 71.9473 92.3673 72.49 92.514C73.0473 92.6607 73.5167 92.8733 73.898 93.152C74.294 93.4307 74.646 93.7753 74.954 94.186C75.262 94.5967 75.5187 95.066 75.724 95.594C75.944 96.1073 76.1127 96.6647 76.23 97.266C76.3473 97.8673 76.406 98.5273 76.406 99.246C76.3767 100.287 76.2373 101.226 75.988 102.062C75.7533 102.883 75.3867 103.587 74.888 104.174C74.404 104.761 73.7733 105.215 72.996 105.538C72.2187 105.846 71.2873 106 70.202 106H66.924ZM69.344 104.064H70.136C71.0747 104.064 71.8227 103.866 72.38 103.47C72.952 103.059 73.3627 102.495 73.612 101.776C73.8613 101.057 73.9787 100.221 73.964 99.268C73.964 98.256 73.854 97.376 73.634 96.628C73.4287 95.88 73.062 95.3007 72.534 94.89C72.006 94.4793 71.2873 94.274 70.378 94.274H69.344V104.064ZM85.074 102.81H79.706L80.058 101.028H84.656L85.074 102.81ZM82.5 96.804L79.728 106H77.264L81.906 92.206H83.094L87.736 106H85.228L82.5 96.804ZM92.202 106V94.384H88.506V92.294H98.472V94.384H94.578V106H92.202ZM107.074 102.81H101.706L102.058 101.028H106.656L107.074 102.81ZM104.5 96.804L101.728 106H99.264L103.906 92.206H105.094L109.736 106H107.228L104.5 96.804ZM127.072 106.242C125.928 106.242 124.938 105.949 124.102 105.362C123.281 104.775 122.65 103.954 122.21 102.898C121.77 101.842 121.55 100.61 121.55 99.202C121.55 98.0287 121.667 97.0387 121.902 96.232C122.151 95.4107 122.481 94.7287 122.892 94.186C123.303 93.6433 123.75 93.218 124.234 92.91C124.733 92.602 125.224 92.3893 125.708 92.272C126.207 92.14 126.654 92.074 127.05 92.074C127.651 92.074 128.223 92.1693 128.766 92.36C129.323 92.5507 129.822 92.822 130.262 93.174C130.717 93.526 131.083 93.9587 131.362 94.472L129.91 95.902L129.778 96.056L129.624 95.902C129.609 95.7847 129.587 95.6747 129.558 95.572C129.529 95.4547 129.433 95.3007 129.272 95.11C129.111 94.9193 128.927 94.7507 128.722 94.604C128.531 94.4573 128.304 94.3473 128.04 94.274C127.776 94.186 127.468 94.142 127.116 94.142C126.793 94.142 126.478 94.1933 126.17 94.296C125.862 94.3987 125.576 94.5747 125.312 94.824C125.063 95.0587 124.835 95.3667 124.63 95.748C124.425 96.1147 124.271 96.5693 124.168 97.112C124.065 97.64 124.014 98.2633 124.014 98.982C124.014 99.862 124.087 100.632 124.234 101.292C124.381 101.937 124.586 102.48 124.85 102.92C125.129 103.36 125.451 103.69 125.818 103.91C126.199 104.115 126.617 104.218 127.072 104.218C127.263 104.218 127.446 104.211 127.622 104.196C127.798 104.167 127.974 104.13 128.15 104.086C128.326 104.027 128.495 103.954 128.656 103.866C128.832 103.778 129.001 103.668 129.162 103.536V101.006H126.896V98.938H131.406V104.812C130.746 105.325 130.049 105.692 129.316 105.912C128.583 106.132 127.835 106.242 127.072 106.242ZM133.122 106V92.294H142.054V94.318H135.542V97.838H140.888V99.884H135.542V103.976H141.988V106H133.122ZM147.202 106V94.384H143.506V92.294H153.472V94.384H149.578V106H147.202ZM159.324 106.242C158.415 106.242 157.557 106.11 156.75 105.846C155.958 105.567 155.298 105.149 154.77 104.592L155.98 102.546L156.068 102.37L156.266 102.48C156.295 102.583 156.332 102.693 156.376 102.81C156.435 102.927 156.552 103.067 156.728 103.228C157.095 103.507 157.498 103.734 157.938 103.91C158.393 104.071 158.884 104.159 159.412 104.174C159.749 104.174 160.057 104.137 160.336 104.064C160.629 103.991 160.879 103.881 161.084 103.734C161.289 103.587 161.451 103.404 161.568 103.184C161.685 102.949 161.744 102.685 161.744 102.392C161.744 102.216 161.722 102.047 161.678 101.886C161.634 101.725 161.553 101.571 161.436 101.424C161.333 101.263 161.179 101.109 160.974 100.962C160.769 100.801 160.512 100.632 160.204 100.456C159.896 100.265 159.507 100.067 159.038 99.862C158.099 99.4513 157.351 99.0333 156.794 98.608C156.251 98.1827 155.863 97.728 155.628 97.244C155.393 96.76 155.276 96.21 155.276 95.594C155.276 94.9193 155.459 94.318 155.826 93.79C156.207 93.262 156.728 92.844 157.388 92.536C158.048 92.228 158.803 92.074 159.654 92.074C160.226 92.074 160.761 92.14 161.26 92.272C161.759 92.404 162.221 92.602 162.646 92.866C163.071 93.1153 163.46 93.438 163.812 93.834L162.36 95.506L162.228 95.66L162.052 95.528C162.037 95.4107 162.008 95.3007 161.964 95.198C161.935 95.0807 161.839 94.934 161.678 94.758C161.399 94.494 161.099 94.318 160.776 94.23C160.468 94.142 160.101 94.098 159.676 94.098C159.368 94.098 159.097 94.1347 158.862 94.208C158.627 94.2813 158.422 94.384 158.246 94.516C158.085 94.648 157.953 94.802 157.85 94.978C157.762 95.1393 157.718 95.308 157.718 95.484C157.718 95.66 157.74 95.8287 157.784 95.99C157.828 96.1367 157.901 96.2833 158.004 96.43C158.121 96.5767 158.283 96.7307 158.488 96.892C158.708 97.0387 158.987 97.2 159.324 97.376C159.661 97.552 160.079 97.75 160.578 97.97C161.267 98.2927 161.847 98.608 162.316 98.916C162.785 99.2093 163.152 99.5247 163.416 99.862C163.695 100.185 163.893 100.544 164.01 100.94C164.127 101.321 164.186 101.754 164.186 102.238C164.186 102.898 164.017 103.536 163.68 104.152C163.343 104.768 162.815 105.274 162.096 105.67C161.377 106.051 160.453 106.242 159.324 106.242ZM180.202 106V94.384H176.506V92.294H186.472V94.384H182.578V106H180.202ZM187.836 92.294H190.322H190.542V92.492C190.454 92.58 190.395 92.6753 190.366 92.778C190.351 92.8807 190.344 93.0567 190.344 93.306V97.86H194.568V92.294H197.076H197.274V92.492C197.186 92.58 197.135 92.6753 197.12 92.778C197.105 92.8807 197.098 93.0567 197.098 93.306V106H194.568V99.84H190.344V106H187.836V92.294ZM199.122 106V92.294H208.054V94.318H201.542V97.838H206.888V99.884H201.542V103.976H207.988V106H199.122ZM224.202 106V94.384H220.506V92.294H230.472V94.384H226.578V106H224.202ZM231.99 106V92.294H236.324C237.453 92.294 238.37 92.4627 239.074 92.8C239.793 93.1227 240.321 93.592 240.658 94.208C240.995 94.8093 241.164 95.5133 241.164 96.32C241.164 96.8187 241.054 97.3173 240.834 97.816C240.629 98.3147 240.335 98.762 239.954 99.158C239.573 99.554 239.118 99.8547 238.59 100.06L241.538 106H238.92L236.148 100.302H234.498V106H231.99ZM234.498 98.234H236.5C237.204 98.234 237.732 98.0727 238.084 97.75C238.436 97.4127 238.612 96.958 238.612 96.386C238.612 96.0193 238.531 95.6967 238.37 95.418C238.223 95.1247 237.989 94.89 237.666 94.714C237.358 94.538 236.969 94.45 236.5 94.45H234.498V98.234ZM243.122 106V92.294H252.054V94.318H245.542V97.838H250.888V99.884H245.542V103.976H251.988V106H243.122ZM261.074 102.81H255.706L256.058 101.028H260.656L261.074 102.81ZM258.5 96.804L255.728 106H253.264L257.906 92.206H259.094L263.736 106H261.228L258.5 96.804ZM268.202 106V94.384H264.506V92.294H274.472V94.384H270.578V106H268.202ZM275.704 106V92.294H277.882L280.544 98.586L283.206 92.272H285.384V106H283.228V96.43L281.072 101.468H279.862L277.838 96.452V106H275.704ZM287.122 106V92.294H296.054V94.318H289.542V97.838H294.888V99.884H289.542V103.976H295.988V106H287.122ZM297.814 92.294H300.41L305.052 101.314L304.92 92.294H307.142H307.34V92.492C307.267 92.58 307.215 92.6753 307.186 92.778C307.171 92.8807 307.164 93.0567 307.164 93.306V106H304.854L300.058 96.386V106H297.814V92.294ZM312.202 106V94.384H308.506V92.294H318.472V94.384H314.578V106H312.202ZM331.54 106V103.998H334.224V94.296H331.694V92.294H339.262V94.296H336.578V103.998H339.372V106H331.54ZM345.202 106V94.384H341.506V92.294H351.472V94.384H347.578V106H345.202ZM363.924 106V92.294H367.466C368.273 92.294 368.947 92.3673 369.49 92.514C370.047 92.6607 370.517 92.8733 370.898 93.152C371.294 93.4307 371.646 93.7753 371.954 94.186C372.262 94.5967 372.519 95.066 372.724 95.594C372.944 96.1073 373.113 96.6647 373.23 97.266C373.347 97.8673 373.406 98.5273 373.406 99.246C373.377 100.287 373.237 101.226 372.988 102.062C372.753 102.883 372.387 103.587 371.888 104.174C371.404 104.761 370.773 105.215 369.996 105.538C369.219 105.846 368.287 106 367.202 106H363.924ZM366.344 104.064H367.136C368.075 104.064 368.823 103.866 369.38 103.47C369.952 103.059 370.363 102.495 370.612 101.776C370.861 101.057 370.979 100.221 370.964 99.268C370.964 98.256 370.854 97.376 370.634 96.628C370.429 95.88 370.062 95.3007 369.534 94.89C369.006 94.4793 368.287 94.274 367.378 94.274H366.344V104.064ZM375.122 106V92.294H384.054V94.318H377.542V97.838H382.888V99.884H377.542V103.976H383.988V106H375.122ZM390.324 106.242C389.415 106.242 388.557 106.11 387.75 105.846C386.958 105.567 386.298 105.149 385.77 104.592L386.98 102.546L387.068 102.37L387.266 102.48C387.295 102.583 387.332 102.693 387.376 102.81C387.435 102.927 387.552 103.067 387.728 103.228C388.095 103.507 388.498 103.734 388.938 103.91C389.393 104.071 389.884 104.159 390.412 104.174C390.749 104.174 391.057 104.137 391.336 104.064C391.629 103.991 391.879 103.881 392.084 103.734C392.289 103.587 392.451 103.404 392.568 103.184C392.685 102.949 392.744 102.685 392.744 102.392C392.744 102.216 392.722 102.047 392.678 101.886C392.634 101.725 392.553 101.571 392.436 101.424C392.333 101.263 392.179 101.109 391.974 100.962C391.769 100.801 391.512 100.632 391.204 100.456C390.896 100.265 390.507 100.067 390.038 99.862C389.099 99.4513 388.351 99.0333 387.794 98.608C387.251 98.1827 386.863 97.728 386.628 97.244C386.393 96.76 386.276 96.21 386.276 95.594C386.276 94.9193 386.459 94.318 386.826 93.79C387.207 93.262 387.728 92.844 388.388 92.536C389.048 92.228 389.803 92.074 390.654 92.074C391.226 92.074 391.761 92.14 392.26 92.272C392.759 92.404 393.221 92.602 393.646 92.866C394.071 93.1153 394.46 93.438 394.812 93.834L393.36 95.506L393.228 95.66L393.052 95.528C393.037 95.4107 393.008 95.3007 392.964 95.198C392.935 95.0807 392.839 94.934 392.678 94.758C392.399 94.494 392.099 94.318 391.776 94.23C391.468 94.142 391.101 94.098 390.676 94.098C390.368 94.098 390.097 94.1347 389.862 94.208C389.627 94.2813 389.422 94.384 389.246 94.516C389.085 94.648 388.953 94.802 388.85 94.978C388.762 95.1393 388.718 95.308 388.718 95.484C388.718 95.66 388.74 95.8287 388.784 95.99C388.828 96.1367 388.901 96.2833 389.004 96.43C389.121 96.5767 389.283 96.7307 389.488 96.892C389.708 97.0387 389.987 97.2 390.324 97.376C390.661 97.552 391.079 97.75 391.578 97.97C392.267 98.2927 392.847 98.608 393.316 98.916C393.785 99.2093 394.152 99.5247 394.416 99.862C394.695 100.185 394.893 100.544 395.01 100.94C395.127 101.321 395.186 101.754 395.186 102.238C395.186 102.898 395.017 103.536 394.68 104.152C394.343 104.768 393.815 105.274 393.096 105.67C392.377 106.051 391.453 106.242 390.324 106.242ZM397.122 106V92.294H406.054V94.318H399.542V97.838H404.888V99.884H399.542V103.976H405.988V106H397.122ZM407.99 106V92.294H412.324C413.453 92.294 414.37 92.4627 415.074 92.8C415.793 93.1227 416.321 93.592 416.658 94.208C416.995 94.8093 417.164 95.5133 417.164 96.32C417.164 96.8187 417.054 97.3173 416.834 97.816C416.629 98.3147 416.335 98.762 415.954 99.158C415.573 99.554 415.118 99.8547 414.59 100.06L417.538 106H414.92L412.148 100.302H410.498V106H407.99ZM410.498 98.234H412.5C413.204 98.234 413.732 98.0727 414.084 97.75C414.436 97.4127 414.612 96.958 414.612 96.386C414.612 96.0193 414.531 95.6967 414.37 95.418C414.223 95.1247 413.989 94.89 413.666 94.714C413.358 94.538 412.969 94.45 412.5 94.45H410.498V98.234ZM422.752 106.044L418.352 92.294H420.816L423.698 101.93L426.382 92.294H428.78L424.424 106.044H422.752ZM430.122 106V92.294H439.054V94.318H432.542V97.838H437.888V99.884H432.542V103.976H438.988V106H430.122ZM445.324 106.242C444.415 106.242 443.557 106.11 442.75 105.846C441.958 105.567 441.298 105.149 440.77 104.592L441.98 102.546L442.068 102.37L442.266 102.48C442.295 102.583 442.332 102.693 442.376 102.81C442.435 102.927 442.552 103.067 442.728 103.228C443.095 103.507 443.498 103.734 443.938 103.91C444.393 104.071 444.884 104.159 445.412 104.174C445.749 104.174 446.057 104.137 446.336 104.064C446.629 103.991 446.879 103.881 447.084 103.734C447.289 103.587 447.451 103.404 447.568 103.184C447.685 102.949 447.744 102.685 447.744 102.392C447.744 102.216 447.722 102.047 447.678 101.886C447.634 101.725 447.553 101.571 447.436 101.424C447.333 101.263 447.179 101.109 446.974 100.962C446.769 100.801 446.512 100.632 446.204 100.456C445.896 100.265 445.507 100.067 445.038 99.862C444.099 99.4513 443.351 99.0333 442.794 98.608C442.251 98.1827 441.863 97.728 441.628 97.244C441.393 96.76 441.276 96.21 441.276 95.594C441.276 94.9193 441.459 94.318 441.826 93.79C442.207 93.262 442.728 92.844 443.388 92.536C444.048 92.228 444.803 92.074 445.654 92.074C446.226 92.074 446.761 92.14 447.26 92.272C447.759 92.404 448.221 92.602 448.646 92.866C449.071 93.1153 449.46 93.438 449.812 93.834L448.36 95.506L448.228 95.66L448.052 95.528C448.037 95.4107 448.008 95.3007 447.964 95.198C447.935 95.0807 447.839 94.934 447.678 94.758C447.399 94.494 447.099 94.318 446.776 94.23C446.468 94.142 446.101 94.098 445.676 94.098C445.368 94.098 445.097 94.1347 444.862 94.208C444.627 94.2813 444.422 94.384 444.246 94.516C444.085 94.648 443.953 94.802 443.85 94.978C443.762 95.1393 443.718 95.308 443.718 95.484C443.718 95.66 443.74 95.8287 443.784 95.99C443.828 96.1367 443.901 96.2833 444.004 96.43C444.121 96.5767 444.283 96.7307 444.488 96.892C444.708 97.0387 444.987 97.2 445.324 97.376C445.661 97.552 446.079 97.75 446.578 97.97C447.267 98.2927 447.847 98.608 448.316 98.916C448.785 99.2093 449.152 99.5247 449.416 99.862C449.695 100.185 449.893 100.544 450.01 100.94C450.127 101.321 450.186 101.754 450.186 102.238C450.186 102.898 450.017 103.536 449.68 104.152C449.343 104.768 448.815 105.274 448.096 105.67C447.377 106.051 446.453 106.242 445.324 106.242Z" fill="#DEDEDE"/>
</svg>
