<svg xmlns="http://www.w3.org/2000/svg" width="32" height="32" viewBox="0 0 32 32" fill="none">
    <path
        d="M6.89978 8.54999C4.99978 9.09999 4.64978 9.64999 5.44978 10.95C5.79978 11.5 6.34978 11.5 8.54978 11C10.9998 10.45 11.5498 10.5 14.2498 11.5C19.2998 13.35 20.8998 13.6 23.7998 13C26.7998 12.35 27.2998 11.95 26.4998 10.55C26.0498 9.69999 25.7498 9.59999 24.6998 9.99999C22.6498 10.8 19.2498 10.55 16.6498 9.44999C13.7998 8.19999 9.49978 7.84999 6.89978 8.54999Z"
        fill="white" />
    <path
        d="M7.49934 19.1C5.19934 19.75 4.79934 20.2 5.44934 21.45C5.94934 22.3 6.24934 22.4 7.29934 22C9.34934 21.2 13.0993 21.45 15.4993 22.55C18.5493 23.9 21.4493 24.25 24.4493 23.5C26.9493 22.9 27.3993 22.4 26.5493 21.05C26.1993 20.5 25.6493 20.5 23.4493 21C21.1493 21.5 20.3993 21.45 18.4993 20.75C12.5993 18.55 10.5493 18.25 7.49934 19.1Z"
        fill="white" />
</svg>