<svg xmlns="http://www.w3.org/2000/svg" width="24" height="24" viewBox="0 0 24 24" fill="none">
    <path
        d="M10.9219 1.76252C10.1391 1.85158 9.84844 1.89846 9.42187 1.99689C8.87812 2.12346 8.48437 2.24533 8.48437 2.28283C8.48437 2.29689 8.55469 2.40471 8.63906 2.52658C10.1719 4.64064 10.8562 5.62502 10.9547 5.84533C11.0578 6.06565 11.0812 6.18283 11.0766 6.46877C11.0719 7.13439 10.8656 7.46721 10.0875 8.05315C9.7875 8.27814 9.45 8.49846 9.34219 8.54064C8.87812 8.72814 8.41875 8.69065 7.875 8.42815C7.17656 8.08596 6.67031 8.32971 6.40312 9.12658C6.25312 9.58127 6.00469 9.91408 5.67187 10.1156C5.17969 10.4063 5.00625 10.4156 3.28125 10.2235C2.54531 10.1391 2.06719 10.1063 2.03906 10.1344C2.01094 10.1578 1.99219 10.6078 1.99219 11.2875C1.99219 12.1547 2.01094 12.511 2.08125 12.9188C2.12812 13.2047 2.17969 13.4625 2.19844 13.486C2.21719 13.5141 2.71406 13.5141 3.5625 13.4813C4.29375 13.4485 5.0625 13.4438 5.26406 13.4625C6.01875 13.5375 6.84844 13.936 7.40625 14.4938C7.95469 15.0422 8.26875 15.6235 8.44219 16.4203C8.58281 17.0531 8.71406 17.1985 9.34687 17.3906C9.70781 17.5031 10.0172 17.7328 10.2047 18.0328C10.3922 18.3281 10.3875 18.3 10.6406 19.7344L10.8562 20.9766L11.5359 20.9906C12.5766 21.0141 13.5047 20.8781 14.475 20.5688L14.9062 20.4328L14.7844 20.236C14.3953 19.6031 13.8891 18.3656 13.6875 17.55L13.6406 17.3531L13.2469 17.2594C12.7031 17.1281 12.3703 16.95 12.0891 16.6547C11.5875 16.125 11.4141 15.4078 11.6203 14.7328C11.6719 14.5547 11.775 14.325 11.8406 14.2219C12.0609 13.8985 12.1406 13.6828 12.1406 13.3688C12.1406 13.0406 12.075 12.8485 11.8359 12.4922C11.3531 11.761 11.2828 10.8141 11.6625 10.0547C11.85 9.67502 12.1219 9.3469 12.4312 9.12658C12.9937 8.73752 13.4062 8.62971 14.3672 8.62502C14.7047 8.62033 15 8.5969 15.1031 8.55939C15.5766 8.39065 15.9187 7.89377 15.9094 7.38283C15.9047 7.15783 15.8625 7.00315 15.6844 6.59533C15 5.0344 15.0891 3.82502 15.9422 3.07971L16.1766 2.87346L15.75 2.67658C14.8828 2.27346 13.9453 1.98752 13.0406 1.8469C12.5906 1.78127 11.2406 1.72502 10.9219 1.76252Z"
        fill="#F05445" />
    <path
        d="M7.21491 2.79845C5.63522 3.61408 4.29459 4.85158 3.37584 6.35158C2.91647 7.09689 2.41959 8.28283 2.23209 9.0797C2.17116 9.35158 2.17116 9.37501 2.24147 9.37501C2.28834 9.37501 2.88834 9.44064 3.58209 9.51564C4.27116 9.59064 4.89459 9.6422 4.96491 9.62345C5.37272 9.52501 5.61647 9.2672 5.71959 8.8172C5.79459 8.49376 6.10397 8.04376 6.38053 7.85158C6.91022 7.48595 7.54303 7.45314 8.15709 7.74845C8.54616 7.94064 8.79928 7.96876 9.07584 7.85158C9.31491 7.75314 10.1352 7.10626 10.2337 6.94689C10.3415 6.75939 10.3837 6.43595 10.3227 6.22501C10.2899 6.10314 8.21334 3.12189 7.75866 2.54064C7.74928 2.53126 7.50553 2.64845 7.21491 2.79845Z"
        fill="#F05445" />
    <path
        d="M16.6596 3.45941C15.7924 4.09223 15.7268 4.80941 16.3924 6.36097C16.5705 6.78285 16.608 6.92816 16.6315 7.24691C16.6877 8.14691 16.1908 8.90629 15.3283 9.25785C15.1643 9.32347 14.9346 9.34691 14.2971 9.37035C13.4862 9.39847 13.4674 9.40316 13.1627 9.55316C12.2018 10.0266 11.8643 11.1985 12.4408 12.075C12.7971 12.6094 12.919 12.9985 12.8768 13.4953C12.8487 13.8844 12.769 14.1141 12.5112 14.5407C12.3283 14.8453 12.3049 14.9157 12.2862 15.2203C12.2721 15.5203 12.2862 15.6 12.394 15.8203C12.5768 16.186 12.9237 16.4485 13.3362 16.5282L13.5143 16.561L13.4862 16.3078C13.4674 16.1672 13.4393 15.7782 13.4252 15.4453C13.3643 14.2547 13.5893 13.8469 14.4752 13.5516C14.8877 13.411 14.9908 13.2985 15.2065 12.7266C15.3658 12.3 15.544 12.0844 15.8815 11.9203L16.1487 11.7891L18.394 11.775C20.4705 11.761 20.8737 11.7797 21.1549 11.8828C21.2299 11.9157 21.2346 11.8688 21.2346 11.3578C21.2346 8.83129 20.208 6.37035 18.4033 4.56566C17.9487 4.11098 16.983 3.32816 16.8799 3.32816C16.8612 3.32816 16.758 3.3891 16.6596 3.45941Z"
        fill="#F05445" />
    <path
        d="M16.1859 12.586C16.0922 12.6281 16.0078 12.7125 15.9656 12.8063C15.5719 13.711 15.4734 13.861 15.15 14.0672C15.0375 14.1375 14.8313 14.2219 14.6953 14.25C14.5266 14.2828 14.4094 14.3438 14.3156 14.4422L14.1797 14.5828V15.4594C14.1844 16.186 14.2031 16.4297 14.2922 16.875C14.7609 19.1953 16.0078 21.15 17.7609 22.3031C18.4828 22.7813 18.5625 22.7906 19.0734 22.4766C19.875 21.9844 20.7234 21.1969 21.3234 20.3953C21.9703 19.5281 22.5234 18.2485 22.7578 17.086C22.9781 16.0031 23.0203 14.7563 22.8469 14.4938C22.7672 14.3766 22.5891 14.2875 22.2516 14.1985C21.825 14.0906 21.525 13.725 21.1688 12.8766C21.1266 12.7781 21.0281 12.661 20.9438 12.6094C20.7938 12.5203 20.7047 12.5156 18.5625 12.5156C16.7531 12.5203 16.3078 12.5297 16.1859 12.586ZM20.2125 14.2969C20.4422 14.6766 20.85 15.0985 21.2016 15.3141L21.4688 15.4828V15.7406C21.4688 16.6594 21.0563 18.0281 20.5031 18.9516C20.0859 19.6453 19.3969 20.4281 18.825 20.8594L18.5625 21.061L18.3609 20.925C18.2531 20.85 17.9297 20.5594 17.6484 20.2735C16.4531 19.0828 15.7734 17.5875 15.6328 15.8438L15.6047 15.4922L15.8297 15.375C16.1484 15.2063 16.7297 14.611 16.9125 14.2594L17.0672 13.9688L18.5484 13.9781L20.0297 13.9922L20.2125 14.2969Z"
        fill="#F05445" />
    <path
        d="M17.3016 14.85C17.1657 15.0656 16.5891 15.6562 16.3735 15.8016C16.275 15.8672 16.275 15.8766 16.3407 16.3125C16.5047 17.4187 16.8938 18.3516 17.5735 19.2516C17.8547 19.6219 18.4688 20.25 18.5532 20.25C18.6282 20.25 19.3172 19.5375 19.5703 19.1953C20.236 18.3047 20.6766 17.1984 20.7891 16.1672L20.8219 15.8672L20.5407 15.6469C20.2547 15.4266 19.8141 14.9297 19.7203 14.7328L19.6735 14.625H18.5578H17.4469L17.3016 14.85Z"
        fill="#F05445" />
    <path
        d="M3.74922 14.2031C3.37422 14.2219 2.91953 14.2406 2.73203 14.2453L2.39453 14.25L2.53516 14.6578C3.62734 17.7891 6.44922 20.2031 9.74453 20.8312C10.0492 20.8875 10.0773 20.8875 10.0773 20.8172C10.0773 20.6812 9.71172 18.6844 9.66484 18.5578C9.57578 18.3281 9.34141 18.15 8.98984 18.0422C8.25859 17.8266 7.86953 17.3859 7.73359 16.6172C7.57891 15.7594 7.06328 15.0094 6.32734 14.5781C5.69453 14.2031 5.16484 14.1281 3.74922 14.2031Z"
        fill="#F05445" />
</svg>