<svg xmlns="http://www.w3.org/2000/svg" width="24" height="25" viewBox="0 0 24 25" fill="none">
    <path
        d="M12 3.5C16.9706 3.5 21 7.52944 21 12.5C21 17.4706 16.9706 21.5 12 21.5C10.2904 21.5 8.64945 21.0218 7.23081 20.1338C6.65294 19.7721 6.1177 19.3457 5.63566 18.8636C5.1529 18.3808 4.72601 17.8446 4.36401 17.2657C3.4774 15.8478 3 14.2082 3 12.5C3 12.2258 3.01228 11.9531 3.0367 11.6823C3.07389 11.2697 3.43847 10.9655 3.85101 11.0026C4.26355 11.0398 4.56783 11.4044 4.53064 11.817C4.51026 12.043 4.5 12.2708 4.5 12.5C4.5 13.9249 4.89727 15.2893 5.63583 16.4704C5.93764 16.953 6.29368 17.4002 6.69639 17.803C7.09848 18.2051 7.5449 18.5608 8.02668 18.8623C9.20844 19.6021 10.5739 20 12 20C16.1421 20 19.5 16.6421 19.5 12.5C19.5 8.35786 16.1421 5 12 5C9.60271 5 7.39953 6.13281 5.99775 8.00196L8.75419 8.00209C9.1684 8.00209 9.50419 8.33788 9.50419 8.75209C9.50419 9.13179 9.22203 9.44558 8.85596 9.49525L8.75419 9.50209H4.25C3.8703 9.50209 3.55651 9.21994 3.50685 8.85386L3.5 8.75209V4.25209C3.5 3.83788 3.83579 3.50209 4.25 3.50209C4.6297 3.50209 4.94349 3.78425 4.99315 4.15032L5 4.25209L4.999 6.84348C6.68587 4.75603 9.23628 3.5 12 3.5ZM11.25 7.5C11.6295 7.5 11.9435 7.78233 11.9931 8.14827L12 8.25V12.5H14.25C14.664 12.5 15 12.836 15 13.25C15 13.6295 14.7177 13.9435 14.3517 13.9931L14.25 14H11.25C10.8705 14 10.5565 13.7177 10.5069 13.3517L10.5 13.25V8.25C10.5 7.836 10.836 7.5 11.25 7.5Z"
        fill="#F05445" />
</svg>