<svg xmlns="http://www.w3.org/2000/svg" width="16" height="16" viewBox="0 0 16 16" fill="#F05445">
    <path fill-rule="evenodd" clip-rule="evenodd"
        d="M3.33333 0.833252C2.8471 0.833252 2.38079 1.02641 2.03697 1.37022C1.69315 1.71404 1.5 2.18036 1.5 2.66659C1.5 3.15282 1.69315 3.61913 2.03697 3.96295C2.38079 4.30676 2.8471 4.49992 3.33333 4.49992C3.81956 4.49992 4.28588 4.30676 4.6297 3.96295C4.97351 3.61913 5.16667 3.15282 5.16667 2.66659C5.16667 2.18036 4.97351 1.71404 4.6297 1.37022C4.28588 1.02641 3.81956 0.833252 3.33333 0.833252ZM2.5 2.66659C2.5 2.44557 2.5878 2.23361 2.74408 2.07733C2.90036 1.92105 3.11232 1.83325 3.33333 1.83325C3.55435 1.83325 3.76631 1.92105 3.92259 2.07733C4.07887 2.23361 4.16667 2.44557 4.16667 2.66659C4.16667 2.8876 4.07887 3.09956 3.92259 3.25584C3.76631 3.41212 3.55435 3.49992 3.33333 3.49992C3.11232 3.49992 2.90036 3.41212 2.74408 3.25584C2.5878 3.09956 2.5 2.8876 2.5 2.66659ZM1.5 5.33325C1.5 5.20064 1.55268 5.07347 1.64645 4.9797C1.74021 4.88593 1.86739 4.83325 2 4.83325H4.66667C4.79927 4.83325 4.92645 4.88593 5.02022 4.9797C5.11399 5.07347 5.16667 5.20064 5.16667 5.33325V13.9999C5.16667 14.1325 5.11399 14.2597 5.02022 14.3535C4.92645 14.4472 4.79927 14.4999 4.66667 14.4999H2C1.86739 14.4999 1.74021 14.4472 1.64645 14.3535C1.55268 14.2597 1.5 14.1325 1.5 13.9999V5.33325ZM2.5 5.83325V13.4999H4.16667V5.83325H2.5ZM6.16667 5.33325C6.16667 5.20064 6.21935 5.07347 6.31311 4.9797C6.40688 4.88593 6.53406 4.83325 6.66667 4.83325H9.33333C9.46594 4.83325 9.59312 4.88593 9.68689 4.9797C9.78065 5.07347 9.83333 5.20064 9.83333 5.33325V5.62259L10.1233 5.49792C10.6233 5.28424 11.1538 5.15038 11.6953 5.10125C13.5453 4.93325 15.1667 6.38659 15.1667 8.25325V13.9999C15.1667 14.1325 15.114 14.2597 15.0202 14.3535C14.9265 14.4472 14.7993 14.4999 14.6667 14.4999H12C11.8674 14.4999 11.7402 14.4472 11.6464 14.3535C11.5527 14.2597 11.5 14.1325 11.5 13.9999V9.33325C11.5 9.11224 11.4122 8.90028 11.2559 8.744C11.0996 8.58772 10.8877 8.49992 10.6667 8.49992C10.4457 8.49992 10.2337 8.58772 10.0774 8.744C9.92113 8.90028 9.83333 9.11224 9.83333 9.33325V13.9999C9.83333 14.1325 9.78065 14.2597 9.68689 14.3535C9.59312 14.4472 9.46594 14.4999 9.33333 14.4999H6.66667C6.53406 14.4999 6.40688 14.4472 6.31311 14.3535C6.21935 14.2597 6.16667 14.1325 6.16667 13.9999V5.33325ZM7.16667 5.83325V13.4999H8.83333V9.33325C8.83333 8.84702 9.02649 8.38071 9.3703 8.03689C9.71412 7.69307 10.1804 7.49992 10.6667 7.49992C11.1529 7.49992 11.6192 7.69307 11.963 8.03689C12.3068 8.38071 12.5 8.84702 12.5 9.33325V13.4999H14.1667V8.25325C14.1667 6.98392 13.0593 5.98125 11.7867 6.09725C11.3495 6.13703 10.9212 6.245 10.5173 6.41725L9.53067 6.84059C9.45456 6.87327 9.37153 6.88655 9.28903 6.87921C9.20653 6.87187 9.12715 6.84415 9.05801 6.79854C8.98887 6.75294 8.93215 6.69087 8.89293 6.61792C8.85372 6.54496 8.83324 6.46341 8.83333 6.38059V5.83325H7.16667Z"
    />
</svg>