<svg xmlns="http://www.w3.org/2000/svg" width="32" height="32" viewBox="0 0 32 32" fill="none">
    <g clip-path="url(#clip0_17_435)">
        <path
            d="M14.35 0.737496C12.8 1.2375 11.6375 2.25 10.9 3.7375C10.45 4.65 10.4375 4.7125 10.4375 6.1125C10.4375 7.525 10.45 7.5875 10.8875 8.5125C11.4875 9.7625 12.375 10.6375 13.6125 11.2375C14.45 11.625 14.7 11.6875 15.75 11.725C16.725 11.7625 17.0875 11.725 17.725 11.5125C19.3 10.975 20.4 10 21.1125 8.5C21.55 7.5875 21.5625 7.5125 21.5625 6.1125C21.5625 4.7 21.55 4.65 21.1 3.7375C19.825 1.175 16.975 -0.100003 14.35 0.737496Z"
            fill="#F05445" />
        <path
            d="M3.77474 4.7625C2.47474 5.0125 1.09974 6.1875 0.637241 7.45C0.0497407 9.0125 0.412241 10.6875 1.61224 11.8875C3.74974 14.025 7.31224 13.4125 8.58724 10.6875C9.07474 9.6375 9.08724 8.2625 8.61224 7.25C7.99974 5.925 7.01224 5.1125 5.63724 4.8C4.86224 4.6125 4.56224 4.6 3.77474 4.7625Z"
            fill="#F05445" />
        <path
            d="M26.275 4.82498C24.9375 5.17498 24.075 5.88748 23.475 7.09998C23.1 7.84998 23.0625 8.03748 23.0625 8.99998C23.075 9.88748 23.125 10.175 23.4125 10.7625C23.8125 11.6 24.7625 12.5375 25.6 12.9125C26.45 13.3125 28.1875 13.3 29.05 12.9C30 12.475 30.6625 11.85 31.125 10.975C31.6875 9.92498 31.7875 8.56248 31.3875 7.48748C30.8875 6.16248 29.6875 5.12498 28.2625 4.79998C27.4 4.58748 27.1125 4.58748 26.275 4.82498Z"
            fill="#F05445" />
        <path
            d="M19.8494 13.275C17.7244 14.6125 14.8244 14.6625 12.2619 13.4125C11.2619 12.9125 11.2244 12.925 10.9744 13.6875C10.8244 14.175 10.8744 27.025 11.0369 27.5C11.2619 28.175 11.7994 28.375 13.3369 28.375H14.5994L14.6494 29.575C14.6869 30.75 14.6994 30.775 15.0994 31.1375C15.6494 31.625 16.2244 31.625 16.7744 31.1375C17.1619 30.7875 17.1744 30.75 17.2244 29.575L17.2744 28.375H18.4994C19.1619 28.375 19.8869 28.3125 20.0994 28.2375C20.8994 27.9625 20.8744 28.225 20.8744 20.45C20.8744 13.9125 20.8619 13.3875 20.6619 13.15C20.4369 12.9 20.4369 12.9 19.8494 13.275Z"
            fill="#F05445" />
        <path
            d="M0.82516 15.025C0.70016 15.5125 0.73766 24.65 0.87516 25.1375C1.05016 25.7625 1.48766 26.025 2.52516 26.1L3.37516 26.1625V27.05C3.37516 28.0625 3.52516 28.375 4.12516 28.625C4.63766 28.8375 5.38766 28.625 5.73766 28.1625C5.95016 27.9125 6.00016 27.6625 6.00016 26.9875V26.125H6.75016C7.57516 26.125 8.16266 25.9 8.37516 25.5125C8.51266 25.25 8.56266 14.975 8.42516 14.8375C8.37516 14.8 8.07516 14.9 7.73766 15.075C5.75016 16.075 3.13766 15.9625 0.98766 14.7875C0.93766 14.7625 0.87516 14.8625 0.82516 15.025Z"
            fill="#F05445" />
        <path
            d="M23.575 14.8375C23.5375 14.8875 23.5 17.2375 23.5 20.0625C23.5 25.0625 23.5125 25.225 23.75 25.5375C24.0375 25.9125 24.675 26.125 25.475 26.125H26V27C26 27.775 26.0375 27.9125 26.35 28.25C26.5625 28.5 26.85 28.6625 27.15 28.7125C27.5625 28.775 27.6625 28.7375 28.0625 28.3375C28.475 27.925 28.5 27.8625 28.5 27.025V26.1625L29.35 26.1C29.8125 26.0625 30.3125 25.9625 30.4625 25.8625C31.05 25.5 31.0625 25.4 31.0625 19.9875C31.0625 17.1875 31.025 14.8625 30.9875 14.825C30.95 14.775 30.6625 14.8875 30.3625 15.05C28.7125 15.975 26.075 15.9875 24.2625 15.075C23.925 14.9 23.625 14.8 23.575 14.8375Z"
            fill="#F05445" />
    </g>
    <defs>
        <clipPath id="clip0_17_435">
            <rect width="32" height="32" fill="white" />
        </clipPath>
    </defs>
</svg>