<svg xmlns="http://www.w3.org/2000/svg" width="32" height="32" viewBox="0 0 32 32" fill="none">
    <g clip-path="url(#clip0_17_524)">
        <path
            d="M2.33756 0.175C0.850058 0.7125 -0.0374424 2.35 0.362558 3.8375C0.700058 5.0625 2.02506 6.125 3.22506 6.125C4.16256 6.125 4.76256 5.875 5.43756 5.1875C6.10006 4.525 6.37506 3.9125 6.37506 3.0625C6.37506 1.0125 4.26256 -0.5 2.33756 0.175Z"
            fill="#F05445" />
        <path d="M8.75 3.125V6.25H11.8125H14.875V3.125V-4.76837e-07H11.8125H8.75V3.125Z"
            fill="#F05445" />
        <path
            d="M19.3751 0.112527C18.5126 0.375027 17.8501 0.937527 17.4251 1.75003C17.0876 2.38753 17.1126 3.77503 17.4626 4.43753C18.9876 7.30003 23.2501 6.22503 23.2501 2.98753C23.2501 2.32503 22.8001 1.32503 22.3001 0.850027C21.5376 0.150027 20.3001 -0.162473 19.3751 0.112527Z"
            fill="#F05445" />
        <path
            d="M25.525 3.0875L25.5625 6.1875L28.6625 6.225L31.75 6.25V3.125V-4.76837e-07H28.625H25.5L25.525 3.0875Z"
            fill="#F05445" />
        <path d="M0.25 12.1875V15.25H3.375H6.5V12.1875V9.125H3.375H0.25V12.1875Z" fill="#F05445" />
        <path
            d="M11.0004 9.23751C9.27544 9.80001 8.40044 11.45 8.90044 13.175C9.10044 13.8625 10.1379 14.9 10.8254 15.1C12.7379 15.6625 14.6004 14.4625 14.8379 12.525C15.0379 10.8375 13.7379 9.28751 12.0379 9.17501C11.6379 9.15001 11.1754 9.17501 11.0004 9.23751Z"
            fill="#F05445" />
        <path d="M17.125 12.1875V15.25H20.25H23.375V12.1875V9.125H20.25H17.125V12.1875Z"
            fill="#F05445" />
        <path
            d="M27.875 9.23748C26.5 9.68748 25.625 10.8375 25.625 12.2C25.625 13.1125 25.8625 13.65 26.5375 14.3125C27.5125 15.2625 28.725 15.5125 29.875 14.9875C32.175 13.95 32.3625 10.825 30.1875 9.56248C29.5875 9.19998 28.45 9.04998 27.875 9.23748Z"
            fill="#F05445" />
        <path
            d="M3.02504 19.5625C1.97504 20.1 1.38754 21.0625 1.37504 22.2875C1.36254 24.85 4.58754 26.275 6.50004 24.55C7.16254 23.95 7.52504 23.05 7.48754 22.0875C7.45004 21.3375 7.46254 21.3125 7.85004 21.0875L8.25004 20.85L11.3375 22.625C15.5625 25.05 15.375 24.9125 15.375 25.4375C15.375 25.825 15.325 25.9 14.9125 26.0625C13.725 26.5625 12.9875 27.6125 12.9875 28.85C12.975 29.825 13.2875 30.525 14 31.1625C14.875 31.95 15.825 32.175 16.9 31.85C17.575 31.65 18.55 30.75 18.8125 30.1C19.45 28.5125 18.6875 26.7375 17.0875 26.0625C16.675 25.9 16.625 25.825 16.625 25.4375C16.625 24.9125 16.4375 25.05 20.6625 22.625L23.75 20.85L24.1375 21.0875C24.5 21.3 24.5125 21.35 24.5375 22.25C24.5625 23.025 24.625 23.3 24.9125 23.7875C25.625 25 27 25.575 28.2875 25.2C30.7375 24.4875 31.4 21.675 29.525 19.975C28.8875 19.4 28.2875 19.2125 27.3125 19.275C26.6875 19.3125 26.3875 19.4125 25.8625 19.7375L25.2 20.15L24.4375 19.75L23.6875 19.35L19.8875 21.55C17.8 22.7625 16.05 23.75 16 23.75C15.95 23.75 14.2 22.7625 12.1125 21.55L8.31254 19.35L7.56254 19.75L6.80004 20.15L6.13754 19.725C5.57504 19.375 5.32504 19.3125 4.57504 19.275C3.81254 19.2375 3.60004 19.275 3.02504 19.5625ZM4.93754 21.325C5.17504 21.425 5.50004 22.0125 5.50004 22.375C5.50004 22.775 4.95004 23.25 4.50004 23.25C3.66254 23.25 3.16254 22.0875 3.75004 21.5C4.00004 21.25 4.53754 21.175 4.93754 21.325ZM28.0125 21.4375C28.975 21.9375 28.6375 23.3 27.55 23.3C26.6375 23.3 26.2125 22.15 26.925 21.55C27.325 21.2 27.5 21.1875 28.0125 21.4375ZM16.7375 28.325C16.8875 28.5125 17 28.7875 17 28.9375C17 29.0875 16.8875 29.3625 16.7375 29.55C16.375 30.0125 15.625 30.0125 15.2625 29.55C15.1125 29.3625 15 29.0875 15 28.9375C15 28.7875 15.1125 28.5125 15.2625 28.325C15.4625 28.075 15.625 28 16 28C16.375 28 16.5375 28.075 16.7375 28.325Z"
            fill="#F05445" />
    </g>
    <defs>
        <clipPath id="clip0_17_524">
            <rect width="32" height="32" fill="white" />
        </clipPath>
    </defs>
</svg>