<svg xmlns="http://www.w3.org/2000/svg" width="24" height="24" viewBox="0 0 24 24" fill="none">
    <path
        d="M9.65561 2.50315C9.52436 2.53127 9.11186 2.69065 8.73686 2.86877C6.99311 3.66565 5.94311 5.64377 6.26186 7.51877C6.76811 10.5188 9.89936 12.15 12.6181 10.8281C13.715 10.2938 14.6431 9.16877 14.9431 8.01565C15.5431 5.71877 14.2306 3.3094 11.99 2.61565C11.4462 2.4469 10.2837 2.39065 9.65561 2.50315Z"
        fill="white" />
    <path
        d="M7.07753 12.1781C4.59316 13.3593 2.84003 15.8437 2.56816 18.5625C2.47441 19.5187 2.43691 19.5 4.27441 19.5H5.81191V18.4781C5.81191 17.6718 5.84003 17.4187 5.96191 17.3062C6.13066 17.1281 6.14941 17.1281 6.38378 17.25C6.54316 17.3437 6.56191 17.4562 6.56191 18.4218V19.5H9.43066C12.1307 19.5 12.2994 19.4906 12.2338 19.3312C11.9338 18.6281 11.7932 17.9625 11.7838 17.25C11.765 15.7312 12.2244 14.5875 13.265 13.5375C13.6213 13.1718 14.0525 12.7875 14.2025 12.675L14.4838 12.4781L13.7432 12.1312C13.2088 11.8875 12.9557 11.8125 12.8525 11.8781C12.7682 11.925 12.1963 12.7125 11.5869 13.6218L10.4713 15.2718L9.34628 13.6125C8.72753 12.7031 8.17441 11.925 8.11816 11.8875C7.95878 11.775 7.86503 11.7937 7.07753 12.1781Z"
        fill="white" />
    <path
        d="M16.236 12.7594C15.4766 12.8906 14.6328 13.3219 14.0047 13.9031C11.6797 16.0594 12.2703 19.7906 15.1578 21.1688C15.8797 21.5063 15.9078 21.5156 17.0141 21.5156C18.111 21.5156 18.1578 21.5063 18.8422 21.1781C20.4547 20.4 21.4391 18.8813 21.4578 17.1563C21.486 15.0469 19.8172 13.0875 17.7172 12.7594C17.0328 12.6469 16.9297 12.6469 16.236 12.7594ZM17.7547 15.15C17.7828 15.2344 17.811 15.5438 17.811 15.8531V16.4063H18.4578C18.9641 16.4063 19.1141 16.4438 19.161 16.5563C19.2641 16.8188 19.2172 17.6813 19.1047 17.7938C19.0391 17.8594 18.7391 17.9063 18.4016 17.9063H17.811V18.4969C17.811 18.8344 17.7641 19.1344 17.6985 19.2C17.5485 19.35 16.4797 19.35 16.3297 19.2C16.2641 19.1344 16.2172 18.8344 16.2172 18.4969V17.9063H15.6266C15.2891 17.9063 14.9891 17.8594 14.9235 17.7938C14.811 17.6813 14.7641 16.8188 14.8672 16.5563C14.9141 16.4438 15.0641 16.4063 15.5703 16.4063H16.2172V15.8531C16.2172 15.0094 16.2266 15 17.0141 15C17.5485 15 17.7078 15.0281 17.7547 15.15Z"
        fill="white" />
</svg>