<svg xmlns="http://www.w3.org/2000/svg" width="193" height="20" viewBox="0 0 193 20" fill="none">
    <path d="M6.67802 20V7.1389H0.5V2.15827H19.0117V7.1389H12.8337V20H6.67802Z" fill="#F05445" />
    <path
        d="M37.1317 14.9198L40.3774 19.9779H33.3711L27.7079 11.1345H32.1848C32.7817 11.1271 33.2965 10.9316 33.7293 10.5479C34.162 10.1642 34.3784 9.69563 34.3784 9.14222C34.3784 8.58882 34.162 8.11658 33.7293 7.72551C33.2965 7.33444 32.7742 7.1389 32.1624 7.1389H27.6296V20H21.4739V2.15827C27.8683 2.16565 31.6326 2.16934 32.7667 2.16934C34.9156 2.16934 36.7474 2.85187 38.2621 4.21693C39.7842 5.57462 40.5452 7.21269 40.5452 9.13116C40.5452 11.0644 39.7842 12.7098 38.2621 14.0675C37.9039 14.3922 37.5271 14.6763 37.1317 14.9198Z"
        fill="white" />
    <path
        d="M59.6053 2.15827L56.3037 7.12784H48.4245V8.61096H58.3406V13.5695H48.4245V15.0304H58.3406V20H42.2688V2.15827H59.6053Z"
        fill="white" />
    <path
        d="M72.9463 13.979L71.5473 11.6104L70.1483 13.979H72.9463ZM75.8226 18.8379L67.2831 18.8268L66.5892 20H59.6949L71.5473 0L83.3997 20H76.5054L75.8226 18.8379Z"
        fill="white" />
    <path d="M86.4103 20V7.1389H80.2323V2.15827H98.744V7.1389H92.566V20H86.4103Z" fill="white" />
    <path
        d="M114.077 12.8832V20H107.922V0L120.143 10.9131L132.41 0L132.365 20H126.209V12.8832L120.143 18.3398L114.077 12.8832Z"
        fill="#F05445" />
    <path
        d="M152.209 2.15827L148.907 7.12784H141.028V8.61096H150.944V13.5695H141.028V15.0304H150.944V20H134.872V2.15827H152.209Z"
        fill="white" />
    <path d="M159.629 20V7.1389H153.451V2.15827H171.963V7.1389H165.785V20H159.629Z" fill="white" />
    <path
        d="M182.047 13.979L180.648 11.6104L179.249 13.979H182.047ZM184.923 18.8379L176.383 18.8268L175.69 20H168.795L180.648 0L192.5 20H185.606L184.923 18.8379Z"
        fill="white" />
</svg>